<svg width="55" height="55" viewBox="0 0 55 55" fill="none" xmlns="http://www.w3.org/2000/svg">
<path d="M40.8473 40.2974C41.0385 41.6739 40.5175 42.9887 39.574 43.8127C39.3988 43.9674 39.2091 44.1032 39.0067 44.2199C38.8234 44.3242 38.6322 44.4141 38.4299 44.4851C37.9709 44.6477 37.4928 44.7077 37.0227 44.6778C37.0099 44.6778 36.9971 44.6778 36.9844 44.6746C36.0378 44.6068 35.1262 44.1773 34.4809 43.4908C33.4339 42.3778 33.4642 40.9951 33.4768 40.7063C33.4768 40.5673 33.4833 40.4316 33.4991 40.2974H22.1207C22.1368 40.4316 22.1431 40.5673 22.1431 40.7063C22.1559 40.9951 22.1861 42.3778 21.1391 43.4908C20.4937 44.1773 19.5822 44.6068 18.6356 44.6746C18.6228 44.6778 18.61 44.6778 18.5972 44.6778C18.1272 44.7077 17.6491 44.6477 17.1902 44.4851C16.9877 44.4141 16.7965 44.3242 16.6132 44.2199C16.4108 44.1032 16.2212 43.9674 16.0459 43.8143C16.0443 43.8143 16.0443 43.8127 16.0443 43.8127C15.1025 42.9871 14.5814 41.6739 14.7726 40.2974H10.6738C10.7009 40.1963 10.7296 40.0938 10.7567 39.9927C11.2666 38.1159 11.7766 36.2375 12.2866 34.3605L12.6212 34.3448L16.5367 34.1712C16.7136 34.1633 16.8491 34.0164 16.8411 33.8429C16.8331 33.6675 16.6881 33.5319 16.508 33.5414L12.7949 33.7055L12.4619 33.7212C12.6467 33.0363 12.8332 32.3528 13.018 31.6692L13.3415 31.6961L16.4857 31.9564H16.5128C16.677 31.9564 16.8172 31.8319 16.83 31.6676C16.8443 31.4941 16.7152 31.3409 16.5399 31.3266L13.5105 31.0757L13.1869 31.0489C13.375 30.3559 13.563 29.6629 13.7511 28.9715L14.0507 29.0868L17.0339 30.228C17.0706 30.2423 17.1104 30.2502 17.1487 30.2502C17.2761 30.2502 17.3972 30.1728 17.4452 30.0481C17.5088 29.8855 17.4275 29.7024 17.2633 29.6393L14.218 28.4727L13.9184 28.359C15.571 22.2755 17.2251 16.1919 18.8778 10.1099C20.0714 13.7468 21.2633 17.3837 22.4554 21.019C23.2969 20.5959 25.2586 19.7293 27.7988 19.7688H27.8211C30.3613 19.7293 32.3231 20.5959 33.1645 21.019C34.3565 17.3837 35.5486 13.7468 36.7422 10.1099C38.3947 16.1919 40.049 22.2755 41.7015 28.359L41.402 28.4727L38.3565 29.6393C38.1924 29.7024 38.1095 29.8855 38.1733 30.0481C38.2226 30.1728 38.3437 30.2502 38.4713 30.2502C38.5095 30.2502 38.5477 30.2423 38.5859 30.228L41.5692 29.0868L41.8689 28.9715C42.0568 29.6629 42.2449 30.3559 42.4329 31.0489L42.1094 31.0757L39.08 31.3266C38.9047 31.3409 38.774 31.4941 38.7883 31.6676C38.8027 31.8319 38.9429 31.9564 39.1055 31.9564H39.1326L42.2785 31.6961L42.6019 31.6692C42.7868 32.3528 42.9732 33.0363 43.158 33.7212L42.825 33.7055L39.1103 33.5414C38.9303 33.535 38.7852 33.6675 38.7773 33.8429C38.7692 34.0164 38.9063 34.1633 39.0817 34.1712L42.9987 34.3448L43.3334 34.3605C43.8434 36.2375 44.3533 38.1159 44.8633 39.9927C44.8903 40.0938 44.919 40.1963 44.946 40.2974H40.8473Z" fill="#F4E041"/>
<path d="M45.3604 40.613L45.2776 40.3098L45.1914 39.9926L43.6647 34.3746L43.3333 34.3604L42.9987 34.3447L44.5301 39.9815H40.4807L40.5301 40.3399C40.6815 41.4242 40.3564 42.4756 39.7046 43.2332C39.5803 43.3785 39.4433 43.5127 39.2966 43.6326C39.2521 43.6705 39.2058 43.7068 39.1596 43.7399C39.064 43.8126 38.9652 43.8773 38.8616 43.9357C38.6911 44.0352 38.5111 44.1203 38.3213 44.1867C38.0058 44.2987 37.6775 44.3587 37.3477 44.3682C37.2392 44.3714 37.1309 44.3682 37.0226 44.3619C36.9174 44.3556 36.8121 44.3429 36.7071 44.3256C35.9612 44.2071 35.2489 43.8441 34.7135 43.2744C33.8242 42.3287 33.7748 41.1734 33.7955 40.706C33.7955 40.5688 33.8018 40.4471 33.8146 40.3335L33.8561 39.9815H21.7621L21.8035 40.3335C21.8163 40.4471 21.8243 40.5688 21.8243 40.7187C21.8434 41.1734 21.794 42.3287 20.9047 43.2744C20.3693 43.8441 19.6569 44.2071 18.9127 44.3256C18.8076 44.3429 18.7024 44.3556 18.5972 44.3619C18.4889 44.3682 18.3805 44.3714 18.2721 44.3682C17.9407 44.3587 17.6124 44.2987 17.2968 44.1867C17.1088 44.1203 16.9287 44.0368 16.7598 43.9373H16.7582C16.6546 43.8788 16.5542 43.8126 16.4586 43.7399C16.4124 43.7068 16.3661 43.6705 16.3215 43.6326C16.1749 43.5127 16.0379 43.3785 15.9136 43.2332C15.2618 42.4756 14.9367 41.4242 15.0881 40.3399L15.1375 39.9815H11.0897L12.6211 34.3447L12.2865 34.3604L11.9534 34.3746L10.4267 39.9926L10.3407 40.3098L10.2578 40.613H14.4203C14.3152 42.4677 15.3924 44.1851 17.0817 44.7818C18.5526 45.3027 20.2768 44.8702 21.3718 43.7052C22.425 42.5844 22.484 41.2238 22.4618 40.706C22.4618 40.6745 22.4602 40.6428 22.4602 40.613H33.1581V40.6919C33.1342 41.2238 33.1931 42.5844 34.2466 43.7052C35.0337 44.5419 36.1429 44.9996 37.2504 44.9996C37.6856 44.9996 38.1206 44.9286 38.5365 44.7818C40.2257 44.1851 41.303 42.4677 41.1979 40.613H45.3604ZM13.018 31.669L12.6945 31.6421L12.1271 33.7353L12.4618 33.7211L12.7949 33.7054L13.3415 31.6958L13.018 31.669ZM36.7709 9L36.4377 10.0118C35.4433 13.0457 34.4473 16.0796 33.453 19.112L32.9733 20.5753C31.7605 20.0101 29.9628 19.415 27.8211 19.4529H27.8036C25.6554 19.4182 23.8577 20.0101 22.6451 20.5753L22.1654 19.112C21.1708 16.0796 20.1765 13.0457 19.1805 10.0118L18.8475 9L13.6188 28.2437L13.9184 28.3589L14.2179 28.4726L18.9064 11.2178C19.7908 13.9155 20.6753 16.6116 21.5581 19.3077L22.2674 21.4671L22.5988 21.2998C23.7398 20.7252 25.5741 20.0433 27.7987 20.0843H27.8258C30.0569 20.0464 31.8783 20.7252 33.0194 21.2998L33.3524 21.4671L34.0601 19.3077C34.9429 16.6116 35.8273 13.9155 36.7134 11.2178L41.4018 28.4726L41.7014 28.3589L41.9995 28.2437L36.7709 9ZM13.4514 28.8562L12.8634 31.0218L13.1869 31.0486L13.5104 31.0755L14.0506 29.0867L13.751 28.9714L13.4514 28.8562ZM42.1667 28.8576L41.8688 28.9714L41.5692 29.0867L42.1094 31.0755L42.4329 31.0486L42.7549 31.0234L42.1667 28.8576ZM42.9237 31.6421L42.6019 31.669L42.2783 31.6958L42.825 33.7054L43.158 33.7211L43.491 33.7353L42.9237 31.6421Z" fill="black" fill-opacity="0.87"/>
<path d="M30.3354 29.6991C29.9609 29.6991 29.6582 29.399 29.6582 29.0281V24.9619C29.6582 24.5909 29.9609 24.291 30.3354 24.291C30.7099 24.291 31.0126 24.5909 31.0126 24.9619V29.0281C31.0126 29.3976 30.7099 29.6991 30.3354 29.6991Z" fill="black" fill-opacity="0.87"/>
<path d="M25.6813 28.989C25.3099 29.0284 24.9752 28.7616 24.9354 28.3923L24.6055 25.3237C24.5656 24.9559 24.835 24.6244 25.2079 24.5849C25.5793 24.5455 25.9139 24.8122 25.9537 25.1816L26.2835 28.2502C26.3235 28.6196 26.0541 28.9495 25.6813 28.989Z" fill="black" fill-opacity="0.87"/>
<path d="M17.4424 30.048C17.3946 30.1727 17.2735 30.25 17.146 30.25C17.1077 30.25 17.0679 30.2422 17.0312 30.228L14.048 29.0866L13.7484 28.9714L13.4488 28.8562L9.11415 27.1971C8.94842 27.134 8.86714 26.9509 8.93088 26.7883C8.99464 26.6258 9.17949 26.5453 9.34364 26.6084L13.6161 28.2437L13.9157 28.3589L14.2153 28.4725L17.2607 29.6392C17.4249 29.7023 17.5061 29.8854 17.4424 30.048Z" fill="black" fill-opacity="0.87"/>
<path d="M16.8269 31.6674C16.8141 31.8317 16.6739 31.9564 16.5098 31.9564H16.4827L13.3385 31.6959L13.015 31.669L12.6915 31.6422L8.02378 31.2555C7.84848 31.2412 7.71779 31.0882 7.73374 30.9145C7.74807 30.7409 7.89947 30.6114 8.07795 30.6273L12.8604 31.0218L13.1839 31.0487L13.5074 31.0755L16.5369 31.3266C16.7122 31.3407 16.8412 31.4939 16.8269 31.6674Z" fill="black" fill-opacity="0.87"/>
<path d="M16.8385 33.843C16.8464 34.0167 16.711 34.1634 16.5341 34.1713L12.6186 34.3449L12.2839 34.3608L11.9509 34.3749L8.05446 34.5487H8.04011C7.87119 34.5487 7.72937 34.4159 7.72299 34.2472C7.71502 34.0718 7.85048 33.9251 8.02577 33.9172L12.1246 33.7356L12.4592 33.7215L12.7923 33.7057L16.5054 33.5415C16.6855 33.532 16.8305 33.6678 16.8385 33.843Z" fill="black" fill-opacity="0.87"/>
<path d="M46.5003 27.1971L42.1641 28.8578L41.866 28.9714L41.5665 29.0866L38.5832 30.228C38.545 30.2422 38.5067 30.25 38.4684 30.25C38.341 30.25 38.2198 30.1727 38.1704 30.048C38.1068 29.8854 38.1895 29.7023 38.3537 29.6392L41.3991 28.4725L41.6988 28.3589L41.9967 28.2437L46.2707 26.6084C46.4333 26.5453 46.6198 26.6258 46.6836 26.7883C46.7457 26.9509 46.6645 27.134 46.5003 27.1971Z" fill="black" fill-opacity="0.87"/>
<path d="M47.8787 30.9149C47.8929 31.0884 47.7623 31.2416 47.5869 31.2557L42.9193 31.6426L42.5973 31.6694L42.2738 31.6963L39.128 31.9566H39.101C38.9384 31.9566 38.7982 31.8321 38.7838 31.6678C38.7694 31.4942 38.9002 31.3411 39.0754 31.3268L42.105 31.0759L42.4284 31.0491L42.7503 31.0238L47.5343 30.6275C47.7097 30.6102 47.8643 30.7411 47.8787 30.9149Z" fill="black" fill-opacity="0.87"/>
<path d="M47.89 34.2468C47.8819 34.4157 47.7417 34.5483 47.5712 34.5483H47.5568L43.6604 34.3747L43.329 34.3604L42.9944 34.3446L39.0773 34.1711C38.902 34.163 38.7649 34.0163 38.7728 33.8427C38.7809 33.6674 38.9258 33.5348 39.106 33.5412L42.8207 33.7053L43.1537 33.7211L43.4867 33.7354L47.5856 33.9168C47.7624 33.9247 47.8979 34.0716 47.89 34.2468Z" fill="black" fill-opacity="0.87"/>
<path d="M36.8901 41.6484C37.0118 41.9957 37.1173 42.4189 37.1509 42.9034C37.1909 43.4733 37.1189 43.969 37.0197 44.3619L36.8901 41.6484Z" fill="white"/>
<path d="M37.0212 44.6778C36.9957 44.6778 36.9702 44.6746 36.9447 44.6684C36.7743 44.6272 36.669 44.4553 36.7121 44.2864C36.8236 43.8364 36.8651 43.3786 36.8332 42.9256C36.806 42.5325 36.7233 42.138 36.5894 41.7527C36.5319 41.5886 36.6197 41.4086 36.7869 41.3519C36.9543 41.295 37.1343 41.3818 37.1916 41.5477C37.3446 41.9848 37.4371 42.4346 37.469 42.883C37.5057 43.4023 37.4578 43.9248 37.3304 44.4394C37.2936 44.5814 37.163 44.6778 37.0212 44.6778Z" fill="black" fill-opacity="0.87"/>
<path d="M38.9683 41.5239C39.1635 41.8349 39.3333 42.2137 39.3861 42.6478C39.4502 43.1577 39.3349 43.6013 39.1764 43.9549L38.9683 41.5239Z" fill="white"/>
<path d="M39.1758 44.2687C39.1327 44.2687 39.0896 44.2592 39.0466 44.2419C38.8856 44.1708 38.8123 43.9846 38.884 43.8251C39.053 43.4463 39.1136 43.0627 39.0673 42.6839C39.0258 42.3524 38.9017 42.0178 38.6961 41.6878C38.6036 41.5395 38.6498 41.3452 38.7997 41.2537C38.9494 41.1621 39.1455 41.2079 39.2379 41.3563C39.4929 41.7635 39.6474 42.1851 39.7 42.6081C39.7605 43.1006 39.6825 43.5963 39.4673 44.0808C39.4147 44.1993 39.2985 44.2687 39.1758 44.2687Z" fill="black" fill-opacity="0.87"/>
<path d="M18.7273 41.6484C18.6057 41.9957 18.5 42.4189 18.4663 42.9034C18.4263 43.4733 18.4984 43.969 18.5975 44.3619L18.7273 41.6484Z" fill="white"/>
<path d="M18.5945 44.6778C18.4512 44.6778 18.322 44.5814 18.2855 44.4379C18.1579 43.9249 18.1101 43.4008 18.1467 42.8814C18.177 42.4316 18.2711 41.9832 18.424 41.546C18.4815 41.3818 18.6632 41.2934 18.8288 41.3503C18.9946 41.407 19.0838 41.587 19.0265 41.7513C18.8926 42.1363 18.8097 42.5294 18.7826 42.924C18.7507 43.377 18.7922 43.8349 18.9037 44.2847C18.9452 44.4536 18.8416 44.6256 18.6711 44.6668C18.6455 44.6746 18.6201 44.6778 18.5945 44.6778Z" fill="black" fill-opacity="0.87"/>
<path d="M16.6491 41.5239C16.4538 41.8349 16.2842 42.2137 16.2314 42.6478C16.1674 43.1577 16.2826 43.6013 16.441 43.9549L16.6491 41.5239Z" fill="white"/>
<path d="M16.4398 44.2687C16.3171 44.2687 16.2008 44.1977 16.1482 44.0808C15.933 43.5977 15.8534 43.1021 15.9155 42.6081C15.9681 42.1851 16.1227 41.7651 16.3777 41.3563C16.4701 41.2079 16.6661 41.1621 16.8159 41.2537C16.9657 41.3452 17.0119 41.5395 16.9195 41.6878C16.7139 42.0161 16.5896 42.3524 16.5482 42.6839C16.502 43.0627 16.5625 43.4463 16.7314 43.8251C16.8032 43.9846 16.7299 44.1708 16.5689 44.2419C16.5259 44.2608 16.4828 44.2687 16.4398 44.2687Z" fill="black" fill-opacity="0.87"/>
<path d="M12.5688 40.5672H1.33901C1.15256 40.5672 1 40.4462 1 40.2985C1 40.1506 1.15256 40.0298 1.33901 40.0298H12.5688C12.7553 40.0298 12.9078 40.1506 12.9078 40.2985C12.9078 40.4462 12.7553 40.5672 12.5688 40.5672Z" fill="black" fill-opacity="0.87"/>
<path d="M53.4552 40.6239H42.8974C42.7221 40.6239 42.5786 40.482 42.5786 40.3083C42.5786 40.1347 42.7221 39.9927 42.8974 39.9927H53.4552C53.6305 39.9927 53.7738 40.1347 53.7738 40.3083C53.7738 40.482 53.6319 40.6239 53.4552 40.6239Z" fill="black" fill-opacity="0.87"/>
<path d="M31.0521 34.8154C30.8225 35.4057 30.2918 36.045 29.6178 36.1414C28.9947 36.2282 28.4209 35.8983 28.0082 35.3853C27.9684 35.4941 27.919 35.6062 27.8553 35.7183C27.7516 35.9015 27.1955 36.8074 26.268 36.8074H26.2424C25.3596 36.7917 24.5932 35.9945 24.4593 34.9512C24.4386 34.7774 24.5613 34.6196 24.7365 34.5991C24.9087 34.577 25.0713 34.7001 25.092 34.8723C25.194 35.6773 25.7629 36.1681 26.2536 36.1761H26.2664C26.8513 36.1761 27.2545 35.4894 27.2991 35.4105C27.519 35.019 27.5141 34.618 27.4743 34.3545C27.4601 34.3056 27.4473 34.2566 27.4345 34.2077C26.8211 34.2788 26.292 34.0656 26.1947 33.6772C26.0848 33.2352 26.5772 32.7333 27.2959 32.5566C28.0162 32.3798 28.6887 32.5943 28.7986 33.0364C28.8911 33.4011 28.5739 33.8051 28.0576 34.0356C28.0735 34.0939 28.0879 34.1635 28.1007 34.2392C28.3588 35.0884 29.0186 35.5857 29.5285 35.5162C29.9238 35.4594 30.295 35.0063 30.456 34.5896C30.5931 34.236 30.574 33.903 30.5342 33.6867C30.5039 33.5147 30.6185 33.3505 30.7906 33.319C30.9659 33.2889 31.1301 33.4026 31.162 33.5731C31.2162 33.8699 31.2416 34.3244 31.0521 34.8154Z" fill="black" fill-opacity="0.87"/>
</svg>
